# xmcd CD database file
#
# Track frame offsets:
#	150
#	10049
#	22193
#	31560
#	43836
#	54828
#	67830
#	80937
#	93687
#	105075
#	117001
#	128429
#	138359
#	150476
#	162323
#	173249
#	185213
#	197741
#	210435
#	224043
#
# Disc length: 3183 seconds
#
# Revision: 1
# Processed by: cddbd v1.5.2PL0 Copyright (c) Steve Scherf et al.
# Submitted via: CDex 1.51
#
DISCID=0a0c6d14
DTITLE=Laura Lee - The Chess Collection [Remaster]
DYEAR=2006
DGENRE=Soul/R&B
TTITLE0=Mama's Got A Good Thing
TTITLE1=Another Man's Woman
TTITLE2=It Ain't What You Do (But How You Do It)
TTITLE3=It's All Wrong But It's All Right
TTITLE4=Need To Belong
TTITLE5=Dirty Man [aka Dirty Old Man]
TTITLE6=But You Know I Love You
TTITLE7=That's How It Is
TTITLE8=It's How You Make It Good
TTITLE9=Love More Than Pride
TTITLE10=Are You Doing Me Wrong
TTITLE11=As Long As I Got You
TTITLE12=She Will Break Your Heart
TTITLE13=A Man With Some Backbone
TTITLE14=Wanted: Lover, No Experience Necessary
TTITLE15=Hang It Up
TTITLE16=It's Mighty Hard
TTITLE17=Uptight Good Woman
TTITLE18=You Need Me
TTITLE19=Stop Giving Your Man Away
EXTD=YEAR: 2006
EXTT0=
EXTT1=
EXTT2=
EXTT3=
EXTT4=
EXTT5=
EXTT6=
EXTT7=
EXTT8=
EXTT9=
EXTT10=
EXTT11=
EXTT12=
EXTT13=
EXTT14=
EXTT15=
EXTT16=
EXTT17=
EXTT18=
EXTT19=
PLAYORDER=
